<?xml version="1.0" standalone="no"?>
<!DOCTYPE svg PUBLIC "-//W3C//DTD SVG 20010904//EN"
 "http://www.w3.org/TR/2001/REC-SVG-20010904/DTD/svg10.dtd">
<svg version="1.0" xmlns="http://www.w3.org/2000/svg"
 width="1024.000000pt" height="1024.000000pt" viewBox="0 0 1024.000000 1024.000000"
 preserveAspectRatio="xMidYMid meet">

<g transform="translate(0.000000,1024.000000) scale(0.100000,-0.100000)"
fill="#000000" stroke-width="10px">
<path d="M0 5120 l0 -5120 55 0 55 0 0 5120 0 5120 -55 0 -55 0 0 -5120z"/>
<path d="M210 5120 l0 -5120 2350 0 2350 0 0 5120 0 5120 -1150 0 -1150 0 0
-640 0 -640 -50 0 -50 0 0 640 0 640 -1150 0 -1150 0 0 -5120z m2400 1920 l0
-640 -50 0 -50 0 0 640 0 640 50 0 50 0 0 -640z m0 -2560 l0 -640 -50 0 -50 0
0 640 0 640 50 0 50 0 0 -640z m0 -2560 l0 -640 -50 0 -50 0 0 640 0 640 50 0
50 0 0 -640z"/>
<path d="M5010 5120 l0 -5120 110 0 110 0 0 5120 0 5120 -110 0 -110 0 0
-5120z"/>
<path d="M5330 5120 l0 -5120 2350 0 2350 0 0 5120 0 5120 -1150 0 -1150 0 0
-640 0 -640 -50 0 -50 0 0 640 0 640 -1150 0 -1150 0 0 -5120z m2400 1920 l0
-640 -50 0 -50 0 0 640 0 640 50 0 50 0 0 -640z m0 -2560 l0 -640 -50 0 -50 0
0 640 0 640 50 0 50 0 0 -640z m0 -2560 l0 -640 -50 0 -50 0 0 640 0 640 50 0
50 0 0 -640z"/>
<path d="M10130 5120 l0 -5120 55 0 55 0 0 5120 0 5120 -55 0 -55 0 0 -5120z"/>
</g>
</svg>
