<svg width="0" height="0" fill="none" style="visibility: hidden; position: absolute;" aria-hidden="true">
    <symbol id="css3" viewBox="0 0 538.584 538.584" xmlns="http://www.w3.org/2000/svg">
        <path d="M0 0h538.584v538.583H0V0z" fill="none"/>
        <path d="M405.5 467.454L269.29 504.13l-136.212-36.676-31.432-340.525h335.29L405.5 467.454z" fill="#2062af"/>
        <path d="M269.289 154.511v320.367l.308.084 110.229-29.682 25.443-290.769h-135.98z" fill="#3c9cd7"/>
        <path d="M191.985 76.899V56.631h29.571V34.453h-51.749v62.684h51.749V76.899h-29.571zm82.766-20.268h20.674V34.453h-51.754v22.178c6.924 6.924 10.535 10.238 20.549 20.252-5.854 0-20.549.021-20.549.02v20.234h51.754V76.899l-20.674-20.268zm73.352 0h20.673V34.453H317.02v22.178c6.924 6.924 10.537 10.238 20.551 20.252-5.852 0-20.551.021-20.551.02v20.234h51.757V76.899l-20.674-20.268z"/>
        <path d="M269.168 239.656l-97.49 40.602 3.233 40.199 94.257-40.301 100.265-42.868 4.157-41.122-104.422 43.49z" fill="#ffffff"/>
        <linearGradient id="a__css3" gradientUnits="userSpaceOnUse" x1="-825.508" y1="1338.301" x2="-825.508" y2="1419.102" gradientTransform="matrix(1 0 0 -1 1045.93 1658.759)">
            <stop offset=".387" stop-color="#d1d3d4" stop-opacity="0"/>
            <stop offset="1" stop-color="#d1d3d4"/>
        </linearGradient>
        <path d="M171.677 280.258l3.233 40.199 94.257-40.301v-40.5l-97.49 40.602z" fill="url(#a__css3)"/>
        <linearGradient id="b__css3" gradientUnits="userSpaceOnUse" x1="-724.552" y1="1378.602" x2="-724.552" y2="1462.591" gradientTransform="matrix(1 0 0 -1 1045.93 1658.759)">
            <stop offset=".387" stop-color="#d1d3d4" stop-opacity="0"/>
            <stop offset="1" stop-color="#d1d3d4"/>
        </linearGradient>
        <path d="M373.59 196.167l-104.422 43.489v40.5l100.265-42.868 4.157-41.121z" fill="url(#b__css3)"/>
        <linearGradient id="c__css3" gradientUnits="userSpaceOnUse" x1="-874.103" y1="1302.263" x2="-680.039" y2="1302.263" gradientTransform="matrix(1 0 0 -1 1045.93 1658.759)">
            <stop offset="0" stop-color="#e8e7e5"/>
            <stop offset="1" stop-color="#ffffff"/>
        </linearGradient>
        <path d="M171.827 280.258l3.234 40.199 144.625.461-3.235 53.598-47.59 13.398-45.748-11.551-2.772-33.268h-42.508l5.545 64.225 85.945 25.412 85.479-24.951 11.09-127.523H171.827z" fill="url(#c__css3)"/>
        <path d="M269.168 280.258h-97.49l3.233 40.199 94.257.301v-40.5zm0 107.528l-.462.129-45.742-11.551-2.772-33.268h-42.507l5.544 64.225 85.939 25.412v-44.947z" opacity=".05"/>
        <linearGradient id="d__css3" gradientUnits="userSpaceOnUse" x1="-883.032" y1="1442.031" x2="-672.341" y2="1442.031" gradientTransform="matrix(1 0 0 -1 1045.93 1658.759)">
            <stop offset="0" stop-color="#e8e7e5"/>
            <stop offset="1" stop-color="#ffffff"/>
        </linearGradient>
        <path d="M162.898 196.167H373.59l-4.157 41.122H167.98l-5.082-41.122z" fill="url(#d__css3)"/>
        <path d="M269.168 196.167h-106.27l5.082 41.122h101.188v-41.122z" opacity=".05"/>
    </symbol>
    <symbol id="html5" viewBox="-52.5 0 361 361" xmlns="http://www.w3.org/2000/svg" preserveAspectRatio="xMidYMid">
        <g>
            <path d="M255.554813,70.7657143 L232.31367,331.125451 L127.843868,360.087912 L23.6617143,331.166242 L0.445186813,70.7657143 L255.554813,70.7657143 L255.554813,70.7657143 Z" fill="#E44D26"> </path>
            <path d="M128,337.950242 L212.416703,314.546637 L232.277802,92.0573187 L128,92.0573187 L128,337.950242 L128,337.950242 Z" fill="#F16529"> </path>
            <path d="M82.8202198,155.932132 L128,155.932132 L128,123.994725 L47.917011,123.994725 L48.6814945,132.562989 L56.530989,220.572835 L128,220.572835 L128,188.636132 L85.7389011,188.636132 L82.8202198,155.932132 L82.8202198,155.932132 Z" fill="#EBEBEB"> </path>
            <path d="M90.0177582,236.54189 L57.957978,236.54189 L62.4323516,286.687648 L127.853011,304.848879 L128,304.808088 L128,271.580132 L127.860044,271.617407 L92.2915165,262.013187 L90.0177582,236.54189 L90.0177582,236.54189 Z" fill="#EBEBEB"> </path>
            <path d="M24.1807473,0 L40.4107253,0 L40.4107253,16.0351648 L55.2573187,16.0351648 L55.2573187,0 L71.488,0 L71.488,48.5584176 L55.258022,48.5584176 L55.258022,32.2981978 L40.4114286,32.2981978 L40.4114286,48.5584176 L24.1814505,48.5584176 L24.1814505,0 L24.1807473,0 L24.1807473,0 Z" fill="#000000"> </path>
            <path d="M92.8309451,16.1026813 L78.5427692,16.1026813 L78.5427692,0 L123.356835,0 L123.356835,16.1026813 L109.06233,16.1026813 L109.06233,48.5584176 L92.8316484,48.5584176 L92.8316484,16.1026813 L92.8309451,16.1026813 L92.8309451,16.1026813 Z" fill="#000000"> </path>
            <path d="M130.469275,0 L147.392703,0 L157.802901,17.061978 L168.202549,0 L185.132308,0 L185.132308,48.5584176 L168.969143,48.5584176 L168.969143,24.4901978 L157.802901,41.7554286 L157.523692,41.7554286 L146.349714,24.4901978 L146.349714,48.5584176 L130.469275,48.5584176 L130.469275,0 L130.469275,0 Z" fill="#000000"> </path>
            <path d="M193.20967,0 L209.444571,0 L209.444571,32.5077802 L232.268659,32.5077802 L232.268659,48.5584176 L193.20967,48.5584176 L193.20967,0 L193.20967,0 Z" fill="#000000"> </path>
            <path d="M127.889582,220.572835 L167.216527,220.572835 L163.509451,261.992791 L127.889582,271.606857 L127.889582,304.833407 L193.362286,286.687648 L193.842637,281.291956 L201.347516,197.212132 L202.126769,188.636132 L127.889582,188.636132 L127.889582,220.572835 L127.889582,220.572835 Z" fill="#FFFFFF"> </path>
            <path d="M127.889582,155.854066 L127.889582,155.932132 L205.032791,155.932132 L205.673495,148.753582 L207.128615,132.562989 L207.892396,123.994725 L127.889582,123.994725 L127.889582,155.854066 L127.889582,155.854066 Z" fill="#FFFFFF"> </path>
        </g>
    </symbol>
    <symbol id="js" viewBox="0 0 32 32" xmlns="http://www.w3.org/2000/svg">
        <rect x="2" y="2" width="28" height="28" style="fill:#f5de19"/>
        <path d="M20.809,23.875a2.866,2.866,0,0,0,2.6,1.6c1.09,0,1.787-.545,1.787-1.3,0-.9-.716-1.222-1.916-1.747l-.658-.282c-1.9-.809-3.16-1.822-3.16-3.964,0-1.973,1.5-3.476,3.853-3.476a3.889,3.889,0,0,1,3.742,2.107L25,18.128A1.789,1.789,0,0,0,23.311,17a1.145,1.145,0,0,0-1.259,1.128c0,.789.489,1.109,1.618,1.6l.658.282c2.236.959,3.5,1.936,3.5,4.133,0,2.369-1.861,3.667-4.36,3.667a5.055,5.055,0,0,1-4.795-2.691Zm-9.295.228c.413.733.789,1.353,1.693,1.353.864,0,1.41-.338,1.41-1.653V14.856h2.631v8.982c0,2.724-1.6,3.964-3.929,3.964a4.085,4.085,0,0,1-3.947-2.4Z"/>
    </symbol>
    <symbol id="laravel" viewBox="-4 0 264 264" xmlns="http://www.w3.org/2000/svg" preserveAspectRatio="xMidYMid">
        <g>
            <path d="M255.855641,59.619717 C255.950565,59.9710596 256,60.3333149 256,60.6972536 L256,117.265345 C256,118.743206 255.209409,120.108149 253.927418,120.843385 L206.448786,148.178786 L206.448786,202.359798 C206.448786,203.834322 205.665123,205.195421 204.386515,205.937838 L105.27893,262.990563 C105.05208,263.119455 104.804608,263.201946 104.557135,263.289593 C104.464333,263.320527 104.376687,263.377239 104.278729,263.403017 C103.585929,263.58546 102.857701,263.58546 102.164901,263.403017 C102.051476,263.372083 101.948363,263.310215 101.840093,263.26897 C101.613244,263.186479 101.376082,263.1143 101.159544,262.990563 L2.07258227,205.937838 C0.7913718,205.201819 0,203.837372 0,202.359798 L0,32.6555248 C0,32.2843161 0.0515567729,31.9234187 0.144358964,31.5728326 C0.175293028,31.454252 0.24747251,31.3459828 0.288717928,31.2274022 C0.366053087,31.0108638 0.438232569,30.7891697 0.55165747,30.5880982 C0.628992629,30.4540506 0.742417529,30.3457814 0.83521972,30.2220451 C0.953800298,30.0570635 1.06206952,29.8869261 1.20127281,29.7425672 C1.31985339,29.6239866 1.4745237,29.5363401 1.60857131,29.4332265 C1.75808595,29.3094903 1.89213356,29.1754427 2.06227091,29.0774848 L2.06742659,29.0774848 L51.6134853,0.551122364 C52.8901903,-0.183535768 54.4613221,-0.183535768 55.7380271,0.551122364 L105.284086,29.0774848 L105.294397,29.0774848 C105.459379,29.1805983 105.598582,29.3094903 105.748097,29.4280708 C105.882144,29.5311844 106.031659,29.6239866 106.15024,29.7374115 C106.294599,29.8869261 106.397712,30.0570635 106.521448,30.2220451 C106.609095,30.3457814 106.727676,30.4540506 106.799855,30.5880982 C106.918436,30.7943253 106.985459,31.0108638 107.06795,31.2274022 C107.109196,31.3459828 107.181375,31.454252 107.212309,31.5779883 C107.307234,31.9293308 107.355765,32.2915861 107.356668,32.6555248 L107.356668,138.651094 L148.643332,114.878266 L148.643332,60.6920979 C148.643332,60.3312005 148.694889,59.9651474 148.787691,59.619717 C148.823781,59.4959808 148.890804,59.3877116 148.93205,59.269131 C149.014541,59.0525925 149.08672,58.8308984 149.200145,58.629827 C149.27748,58.4957794 149.390905,58.3875102 149.478552,58.2637739 C149.602288,58.0987922 149.705401,57.9286549 149.84976,57.7842959 C149.968341,57.6657153 150.117856,57.5780688 150.251903,57.4749553 C150.406573,57.351219 150.540621,57.2171714 150.705603,57.1192136 L150.710758,57.1192136 L200.261973,28.5928511 C201.538395,27.8571345 203.110093,27.8571345 204.386515,28.5928511 L253.932573,57.1192136 C254.107866,57.2223271 254.241914,57.351219 254.396584,57.4697996 C254.525476,57.5729132 254.674991,57.6657153 254.793572,57.7791402 C254.93793,57.9286549 255.041044,58.0987922 255.16478,58.2637739 C255.257582,58.3875102 255.371007,58.4957794 255.443187,58.629827 C255.561767,58.8308984 255.628791,59.0525925 255.711282,59.269131 C255.757683,59.3877116 255.824707,59.4959808 255.855641,59.619717 Z M247.740605,114.878266 L247.740605,67.8378666 L230.402062,77.8192579 L206.448786,91.6106946 L206.448786,138.651094 L247.745761,114.878266 L247.740605,114.878266 Z M198.194546,199.97272 L198.194546,152.901386 L174.633101,166.357704 L107.351512,204.757188 L107.351512,252.27191 L198.194546,199.97272 Z M8.25939501,39.7961379 L8.25939501,199.97272 L99.0921175,252.266755 L99.0921175,204.762344 L51.6392637,177.906421 L51.6237967,177.89611 L51.603174,177.885798 C51.443348,177.792996 51.3093004,177.658949 51.1597857,177.545524 C51.0308938,177.44241 50.8813791,177.359919 50.7679542,177.246494 L50.7576429,177.231027 C50.6235953,177.102135 50.5307931,176.942309 50.4173682,176.79795 C50.3142546,176.658747 50.1905184,176.540167 50.1080276,176.395808 L50.1028719,176.380341 C50.0100697,176.22567 49.9533572,176.040066 49.8863334,175.864773 C49.8193096,175.710103 49.7316631,175.565744 49.6904177,175.400762 L49.6904177,175.395606 C49.6388609,175.19969 49.6285496,174.993463 49.6079269,174.792392 C49.5873041,174.637722 49.5460587,174.483051 49.5460587,174.328381 L49.5460587,174.31807 L49.5460587,63.5689658 L25.5979377,49.7723734 L8.25939501,39.8012935 L8.25939501,39.7961379 Z M53.6809119,8.89300821 L12.3994039,32.6555248 L53.6706006,56.4180414 L94.9469529,32.6503692 L53.6706006,8.89300821 L53.6809119,8.89300821 Z M75.1491521,157.19091 L99.0972731,143.404629 L99.0972731,39.7961379 L81.7587304,49.7775291 L57.8054537,63.5689658 L57.8054537,167.177457 L75.1491521,157.19091 Z M202.324244,36.934737 L161.047891,60.6972536 L202.324244,84.4597702 L243.59544,60.6920979 L202.324244,36.934737 Z M198.194546,91.6106946 L174.24127,77.8192579 L156.902727,67.8378666 L156.902727,114.878266 L180.850848,128.664547 L198.194546,138.651094 L198.194546,91.6106946 Z M103.216659,197.616575 L163.759778,163.052915 L194.023603,145.781396 L152.778185,122.034346 L105.289242,149.374903 L62.0073307,174.292291 L103.216659,197.616575 Z" fill="#FF2D20"> </path>
        </g>
    </symbol>
    <symbol id="php" viewBox="0 0 32 32" fill="none" xmlns="http://www.w3.org/2000/svg">
        <circle cx="16" cy="16" r="14" fill="#8892BF"/>
        <path d="M14.4392 10H16.1192L15.6444 12.5242H17.154C17.9819 12.5419 18.5986 12.7269 19.0045 13.0793C19.4184 13.4316 19.5402 14.1014 19.3698 15.0881L18.5541 19.4889H16.8497L17.6288 15.2863C17.7099 14.8457 17.6856 14.533 17.5558 14.348C17.426 14.163 17.146 14.0705 16.7158 14.0705L15.3644 14.0573L14.3661 19.4889H12.6861L14.4392 10Z" fill="white"/>
        <path fill-rule="evenodd" clip-rule="evenodd" d="M6.74092 12.5243H10.0036C10.9612 12.533 11.6552 12.8327 12.0854 13.4229C12.5156 14.0132 12.6576 14.8193 12.5115 15.8414C12.4548 16.3085 12.3289 16.7665 12.1341 17.2159C11.9474 17.6652 11.6878 18.0704 11.355 18.4317C10.9491 18.8898 10.5149 19.1805 10.0523 19.304C9.58969 19.4274 9.11076 19.489 8.61575 19.489H7.15484L6.69222 22H5L6.74092 12.5243ZM7.43485 17.9956L8.16287 14.0441H8.40879C8.49815 14.0441 8.5914 14.0396 8.6888 14.0309C9.33817 14.0221 9.87774 14.0882 10.308 14.2291C10.7462 14.37 10.8923 14.9031 10.7462 15.8282C10.5678 16.9296 10.2186 17.5727 9.69926 17.7577C9.1799 17.934 8.53053 18.0176 7.75138 18.0088H7.58094C7.53224 18.0088 7.48355 18.0043 7.43485 17.9956Z" fill="white"/>
        <path fill-rule="evenodd" clip-rule="evenodd" d="M24.4365 12.5243H21.1738L19.4329 22H21.1251L21.5878 19.489H23.0487C23.5437 19.489 24.0226 19.4274 24.4852 19.304C24.9479 19.1805 25.382 18.8898 25.7879 18.4317C26.1207 18.0704 26.3803 17.6652 26.567 17.2159C26.7618 16.7665 26.8877 16.3085 26.9444 15.8414C27.0905 14.8193 26.9486 14.0132 26.5183 13.4229C26.0881 12.8327 25.3942 12.533 24.4365 12.5243ZM22.5958 14.0441L21.8678 17.9956C21.9165 18.0043 21.9652 18.0088 22.0139 18.0088H22.1843C22.9635 18.0176 23.6128 17.934 24.1322 17.7577C24.6515 17.5727 25.0007 16.9296 25.1792 15.8282C25.3253 14.9031 25.1792 14.37 24.7409 14.2291C24.3107 14.0882 23.7711 14.0221 23.1217 14.0309C23.0243 14.0396 22.9311 14.0441 22.8417 14.0441H22.5958Z" fill="white"/>
    </symbol>
    <symbol id="scss" viewBox="0 0 32 32" xmlns="http://www.w3.org/2000/svg">
        <path d="M16,2A14,14,0,1,1,2,16,14,14,0,0,1,16,2Z" style="fill:#c69;fill-rule:evenodd"/>
        <path d="M24.782,7.992c-.634-2.486-4.757-3.3-8.659-1.918A19.605,19.605,0,0,0,9.479,9.885c-2.149,2.01-2.492,3.76-2.351,4.491.5,2.58,4.033,4.266,5.486,5.517V19.9c-.428.211-3.564,1.8-4.3,3.42-.774,1.712.123,2.94.718,3.105A4.4,4.4,0,0,0,13.78,24.5a4.824,4.824,0,0,0,.472-4.288,5.639,5.639,0,0,1,2.143-.123c2.456.287,2.938,1.82,2.846,2.462a1.62,1.62,0,0,1-.779,1.1c-.172.107-.225.143-.21.223.021.115.1.111.247.086a1.915,1.915,0,0,0,1.336-1.707c.059-1.5-1.382-3.186-3.934-3.143a6.736,6.736,0,0,0-2.189.3c-.035-.04-.071-.08-.108-.12-1.578-1.683-4.494-2.874-4.371-5.137.045-.823.331-2.989,5.6-5.617,4.32-2.153,7.778-1.56,8.376-.247.854,1.876-1.848,5.361-6.334,5.864a3.37,3.37,0,0,1-2.833-.718c-.236-.26-.271-.271-.359-.223-.143.079-.052.309,0,.445a2.659,2.659,0,0,0,1.621,1.274,8.592,8.592,0,0,0,5.258-.52C23.283,13.362,25.405,10.437,24.782,7.992ZM13.218,20.663a3.584,3.584,0,0,1-.029,2.092q-.035.106-.077.21t-.091.2a3.911,3.911,0,0,1-.647.943c-.813.887-1.95,1.223-2.437.94-.526-.305-.263-1.556.68-2.553a9.478,9.478,0,0,1,2.474-1.762l0,0Z" style="fill:#fff"/>
    </symbol>
    <symbol id="svg__first" xmlns="http://www.w3.org/2000/svg" aria-label="SVG" role="img" viewBox="0 0 512 512">
        <rect width="512" height="512" rx="15%" fill="#f90"/>
        <path d="M122 157h268v99H122"/>
        <g id="a__svg__first" fill="#ffffff" stroke="#000000" stroke-width="24">
            <circle cx="256" cy="120" r="44"/>
            <circle cx="120" cy="256" r="44"/>
            <circle cx="160" cy="160" r="44"/>
        </g>
        <use href="#a__svg__first" transform="matrix(-1 0 0 1 512 0)"/>
        <path stroke="#ffffff" stroke-width="44" d="M396 256H256l96-96-96 96V120v136l-96-96 96 96H116"/>
        <path d="M64.1 256h384v170a22 22 0 01-22 22h-340a22 22 0 01-22-22V256"/>
        <path fill="none" stroke="#ffffff" stroke-width="30" d="M292 264l-36 172-36-172m-29 55a35 35 0 10-35 35 35 35 0 11-35 35m270-70a35 35 0 00-35-35 35 35 0 00-35 35v70a35 35 0 0035 35 35 35 0 0035-35v-35h-35"/>
        <path d="M64 256h384v12H64"/>
    </symbol>
    <symbol id="svg__four" xmlns="http://www.w3.org/2000/svg" viewBox="0 0 512 512" xml:space="preserve">
        <polygon style="fill:#AFB6BB;" points="477.691,192.66 477.691,382.68 451.299,382.68 60.701,382.68 34.309,382.68 34.309,192.66 60.701,192.66 451.299,192.66"/>
        <polygon style="fill:#FDB51E;" points="450.982,81.814 345.732,81.814 345.732,7.918"/>
        <g>
            <rect x="60.701" y="382.68" style="fill:#595E62;" width="390.598" height="121.402"/>
            <polygon style="fill:#595E62;" points="451.299,82.026 451.299,192.66 60.701,192.66 60.701,7.918 345.732,7.918 345.732,81.814 450.982,81.814"/>
        </g>
        <g>
            <rect x="60.701" y="382.68" style="fill:#43474B;" width="195.299" height="121.402"/>
            <rect x="60.701" y="7.918" style="fill:#43474B;" width="195.299" height="184.742"/>
        </g>
        <polygon style="fill:#A0A7AB;" points="477.691,192.66 451.299,192.66 60.701,192.66 34.309,192.66 34.309,292.948 477.691,292.948"/>
        <path d="M485.608,184.742h-26.392V77.792L348.234,0H52.784v184.742H26.392v205.856h26.392V512h406.433V390.598h26.392V184.742z M353.65,23.151l72.277,50.746H353.65V23.151z M68.619,15.835h269.196v73.897h105.567v95.01H68.619V15.835z M443.381,496.165H68.619 V390.598h374.763V496.165z M469.773,374.763H42.227V200.577h427.546V374.763z"/>
        <path style="fill:#FFFFFF;" d="M200.577,95.01V58.062h-52.784V36.948H89.732V95.01h58.062V73.897h36.948V95.01h-21.113v58.062 h58.062V95.01H200.577z M131.959,79.175h-26.392V52.784h26.392V79.175z M205.856,137.237h-26.392v-26.392h26.392V137.237z"/>
        <path d="M155.711,348.371h-21.113c-18.918,0-34.309-15.392-34.309-34.309h15.835c0,10.186,8.288,18.474,18.474,18.474h21.113 c10.186,0,18.474-8.288,18.474-18.474c0-10.186-8.288-18.474-18.474-18.474h-21.113c-18.918,0-34.309-15.392-34.309-34.309 s15.392-34.309,34.309-34.309h21.113c18.918,0,34.309,15.392,34.309,34.309h-15.835c0-10.186-8.288-18.474-18.474-18.474h-21.113 c-10.186,0-18.474,8.288-18.474,18.474s8.288,18.474,18.474,18.474h21.113c18.918,0,34.309,15.392,34.309,34.309 C190.021,332.979,174.629,348.371,155.711,348.371z"/>
        <g>
            <rect x="113.485" y="432.825" style="fill:#FFFFFF;" width="285.031" height="15.835"/>
            <rect x="435.464" y="216.412" style="fill:#FFFFFF;" width="21.113" height="15.835"/>
            <rect x="435.464" y="343.093" style="fill:#FFFFFF;" width="21.113" height="15.835"/>
            <rect x="55.423" y="343.093" style="fill:#FFFFFF;" width="21.113" height="15.835"/>
            <rect x="55.423" y="216.412" style="fill:#FFFFFF;" width="21.113" height="15.835"/>
        </g>
        <path d="M366.845,353.65c-48.737,0-50.144-26.059-50.144-29.031v-58.062c0-0.96,0.196-9.621,7.014-18.142 c8.582-10.728,23.094-16.168,43.13-16.168c20.037,0,34.549,5.44,43.13,16.168c6.816,8.52,7.014,17.182,7.014,18.142h-15.835 l0.001,0.143c-0.073-1.905-1.66-18.617-34.31-18.617c-32.422,0-34.214,16.478-34.309,18.575v57.962 c0,3.424,6.303,13.196,34.309,13.196c14.464,0,24.582-4.873,30.074-14.485c4.119-7.21,4.235-14.474,4.235-14.546v-7.918h-34.309 v-15.835h50.144v23.753C416.99,309.232,416.416,353.65,366.845,353.65z"/>
        <polygon points="266.735,348.371 245.265,348.371 201.096,232.427 215.894,226.79 256,332.068 296.106,226.79 310.904,232.427"/>
    </symbol>
    <symbol id="svg__second" height="800px" width="800px" xmlns="http://www.w3.org/2000/svg" viewBox="0 0 56 56" xml:space="preserve">
        <g>
            <path style="fill:#E9E9E0;" d="M36.985,0H7.963C7.155,0,6.5,0.655,6.5,1.926V55c0,0.345,0.655,1,1.463,1h40.074 c0.808,0,1.463-0.655,1.463-1V12.978c0-0.696-0.093-0.92-0.257-1.085L37.607,0.257C37.442,0.093,37.218,0,36.985,0z"/>
            <polygon style="fill:#D9D7CA;" points="37.5,0.151 37.5,12 49.349,12"/>
            <path style="fill:#E57E25;" d="M48.037,56H7.963C7.155,56,6.5,55.345,6.5,54.537V39h43v15.537C49.5,55.345,48.845,56,48.037,56z"/>
            <g>
                <path style="fill:#FFFFFF;" d="M21.459,50.238c0,0.364-0.075,0.718-0.226,1.06s-0.362,0.643-0.636,0.902s-0.61,0.467-1.012,0.622 s-0.856,0.232-1.367,0.232c-0.219,0-0.444-0.012-0.677-0.034s-0.467-0.062-0.704-0.116s-0.463-0.13-0.677-0.226 s-0.398-0.212-0.554-0.349l0.287-1.176c0.128,0.073,0.289,0.144,0.485,0.212s0.398,0.132,0.608,0.191s0.419,0.107,0.629,0.144 s0.405,0.055,0.588,0.055c0.556,0,0.982-0.13,1.278-0.39c0.296-0.26,0.444-0.645,0.444-1.155c0-0.31-0.104-0.574-0.314-0.793 s-0.472-0.417-0.786-0.595s-0.654-0.355-1.019-0.533s-0.706-0.388-1.025-0.629s-0.583-0.526-0.793-0.854s-0.314-0.738-0.314-1.23 c0-0.446,0.082-0.843,0.246-1.189s0.385-0.641,0.663-0.882s0.602-0.426,0.971-0.554s0.759-0.191,1.169-0.191 c0.419,0,0.843,0.039,1.271,0.116s0.774,0.203,1.039,0.376c-0.055,0.118-0.118,0.248-0.191,0.39s-0.142,0.273-0.205,0.396 s-0.118,0.226-0.164,0.308s-0.073,0.128-0.082,0.137c-0.055-0.027-0.116-0.063-0.185-0.109s-0.166-0.091-0.294-0.137 s-0.296-0.077-0.506-0.096s-0.479-0.014-0.807,0.014c-0.183,0.019-0.355,0.07-0.52,0.157s-0.31,0.193-0.438,0.321 s-0.228,0.271-0.301,0.431s-0.109,0.313-0.109,0.458c0,0.364,0.104,0.658,0.314,0.882s0.47,0.419,0.779,0.588 s0.647,0.333,1.012,0.492s0.704,0.354,1.019,0.581s0.576,0.513,0.786,0.854S21.459,49.7,21.459,50.238z"/>
                <path style="fill:#FFFFFF;" d="M25.861,53.055L22.73,42.924h1.873l2.338,8.695l2.475-8.695h1.859l-3.281,10.131H25.861z"/>
                <path style="fill:#FFFFFF;" d="M40.668,47.805v3.896c-0.21,0.265-0.444,0.48-0.704,0.649s-0.533,0.308-0.82,0.417 S38.561,52.954,38.255,53s-0.608,0.068-0.909,0.068c-0.602,0-1.155-0.109-1.661-0.328s-0.948-0.542-1.326-0.971 s-0.675-0.966-0.889-1.613s-0.321-1.395-0.321-2.242s0.107-1.593,0.321-2.235s0.511-1.178,0.889-1.606s0.822-0.754,1.333-0.978 s1.062-0.335,1.654-0.335c0.547,0,1.058,0.091,1.531,0.273s0.897,0.456,1.271,0.82l-1.135,1.012 c-0.219-0.265-0.47-0.456-0.752-0.574s-0.574-0.178-0.875-0.178c-0.337,0-0.658,0.063-0.964,0.191s-0.579,0.344-0.82,0.649 s-0.431,0.699-0.567,1.183s-0.21,1.075-0.219,1.777c0.009,0.684,0.08,1.276,0.212,1.777s0.314,0.911,0.547,1.23 s0.497,0.556,0.793,0.711s0.608,0.232,0.937,0.232c0.101,0,0.234-0.007,0.403-0.021s0.337-0.036,0.506-0.068 s0.33-0.075,0.485-0.13s0.269-0.132,0.342-0.232v-2.488h-1.709v-1.121H40.668z"/>
            </g>
            <path style="fill:#C8BDB8;" d="M45.5,22v-6h-6v2h-6v-4h-10v4h-6v-2h-6v6h6v-2h3.548c-4.566,2.636-7.548,7.588-7.548,13 c0,0.552,0.447,1,1,1s1-0.448,1-1c0-5.246,3.229-9.999,8-11.995V24h10v-2.995c4.771,1.997,8,6.75,8,11.995c0,0.552,0.447,1,1,1 s1-0.448,1-1c0-5.412-2.982-10.364-7.548-13H39.5v2H45.5z M15.5,20h-2v-2h2V20z M31.5,22h-6v-3.754V16h6v2.246V22z M41.5,18h2v2h-2 V18z"/>
        </g>
    </symbol>
    <symbol id="svg__third" xmlns="http://www.w3.org/2000/svg" viewBox="0 0 512 512" xml:space="preserve">
        <path style="fill:#E2E5E7;" d="M128,0c-17.6,0-32,14.4-32,32v448c0,17.6,14.4,32,32,32h320c17.6,0,32-14.4,32-32V128L352,0H128z"/>
        <path style="fill:#B0B7BD;" d="M384,128h96L352,0v96C352,113.6,366.4,128,384,128z"/>
        <polygon style="fill:#CAD1D8;" points="480,224 384,128 480,128"/>
        <path style="fill:#F7B84E;" d="M416,416c0,8.8-7.2,16-16,16H48c-8.8,0-16-7.2-16-16V256c0-8.8,7.2-16,16-16h352c8.8,0,16,7.2,16,16 V416z"/>
        <g>
            <path style="fill:#FFFFFF;" d="M96.816,314.656c2.944-24.816,40.416-29.28,58.08-15.712c8.704,7.024-0.512,18.16-8.192,12.528 c-9.472-6.016-30.96-8.832-33.648,4.464c-3.456,20.992,52.192,8.976,51.312,42.992c-0.896,32.496-47.984,33.264-65.648,18.672 c-4.224-3.44-4.096-9.056-1.792-12.528c3.328-3.312,7.04-4.464,11.392-0.896c10.48,7.168,37.488,12.544,39.392-5.648 C146.064,339.616,92.848,351.008,96.816,314.656z"/>
            <path style="fill:#FFFFFF;" d="M209.12,378.256l-33.776-70.752c-4.992-10.112,10.112-18.416,15.728-7.808l11.392,25.712 l14.704,33.776l14.448-33.776l11.392-25.712c5.12-9.712,19.952-3.584,15.616,7.04L226,378.256 C223.056,386.32,213.984,388.224,209.12,378.256z"/>
            <path style="fill:#FFFFFF;" d="M345.76,374.16c-9.088,7.536-20.224,10.752-31.472,10.752c-26.88,0-45.936-15.36-45.936-45.808 c0-25.84,20.096-45.92,47.072-45.92c10.112,0,21.232,3.456,29.168,11.264c7.792,7.664-3.456,19.056-11.12,12.288 c-4.736-4.624-11.392-8.064-18.048-8.064c-15.472,0-30.432,12.4-30.432,30.432c0,18.944,12.528,30.448,29.296,30.448 c7.792,0,14.448-2.304,19.184-5.76V348.08h-19.184c-11.392,0-10.24-15.632,0-15.632h25.584c4.736,0,9.072,3.6,9.072,7.568v27.248 C348.96,369.552,347.936,371.712,345.76,374.16z"/>
        </g>
        <path style="fill:#CAD1D8;" d="M400,432H96v16h304c8.8,0,16-7.2,16-16v-16C416,424.8,408.8,432,400,432z"/>
    </symbol>
    <symbol id="vue" viewBox="0 0 32 32" fill="none" xmlns="http://www.w3.org/2000/svg">
        <path d="M2 4L16 28L30 4H24.5L16 18.5L7.5 4H2Z" fill="#41B883"/>
        <path d="M7.5 4L16 18.5L24.5 4H19.5L16.0653 10.0126L12.5 4H7.5Z" fill="#35495E"/>
    </symbol>
</svg>